<svg xmlns="http://www.w3.org/2000/svg" xmlns:xlink="http://www.w3.org/1999/xlink" version="1.1" x="0px" y="0px" viewBox="0 0 1920 1080" style="enable-background:new 0 0 1920 1080;" xml:space="preserve">
<style xmlns="http://www.w3.org/2000/svg" type="text/css">
	.st0{opacity:0.11;fill:#2A94F4;}
	.st1{fill:#0E538C;}
	.st2{fill:#0B4870;}
	.st3{fill:#F7F7F7;}
	.st4{opacity:0.28;clip-path:url(#SVGID_2_);fill:#ee411f;}
	.st5{clip-path:url(#SVGID_2_);fill:#2A94F4;}
	.st6{clip-path:url(#SVGID_2_);}
	.st7{fill:#FCD2B1;}
	.st8{fill:#163C47;}
	.st9{fill:none;stroke:#FFFFFF;stroke-width:0.5217;stroke-miterlimit:10;}
	.st10{fill:#FFE3CA;}
	.st11{fill:#ee411f;}
</style>
<g xmlns="http://www.w3.org/2000/svg" id="Background">
	<path class="st0" d="M1233.46,442.14c33.41-44.01,52.74-96.05,52.74-151.83v0c0-158.02-155.02-286.12-346.24-286.12h0   c-191.22,0-346.24,128.1-346.24,286.12v0c0,55.78,19.34,107.82,52.74,151.83C555.51,509,498.2,606.44,498.2,714.94v0   c0,201.61,197.78,365.05,441.76,365.05h0c243.98,0,441.76-163.44,441.76-365.05v0C1381.72,606.44,1324.4,509,1233.46,442.14z"/>
</g>
<g xmlns="http://www.w3.org/2000/svg" id="Onject">
	<ellipse class="st0" cx="946.15" cy="1047.15" rx="405.67" ry="30.02"/>
	<g id="Backgriund_1_">
		<path class="st1" d="M1199.97,955.72L1199.97,955.72V116.78c-0.01-39.03-31.65-70.67-70.68-70.68H780.36    c-39.03,0.01-70.67,31.65-70.68,70.68V967.4c-0.01,39.03,31.63,70.67,70.65,70.68c0.01,0,0.02,0,0.02,0h348.93    c39.03,0,70.68-31.63,70.69-70.67L1199.97,955.72z"/>
		<path class="st2" d="M890.85,87.31c0.01,3.72-3.01,6.75-6.73,6.76c-3.72,0.01-6.75-3.01-6.76-6.73c-0.01-3.72,3.01-6.75,6.73-6.76    c0.01,0,0.02,0,0.02,0C887.83,80.58,890.85,83.59,890.85,87.31z"/>
		<path class="st2" d="M909.2,78.96H1035c0.87,0,1.57,0.7,1.57,1.57v13.56c0,0.87-0.7,1.57-1.57,1.57H909.2    c-0.87,0-1.57-0.7-1.57-1.57V80.53C907.63,79.67,908.33,78.96,909.2,78.96z"/>
		<circle class="st2" cx="953.48" cy="996.39" r="26.9"/>
		<rect x="722.41" y="128.51" class="st3" width="464.82" height="827.15"/>
	</g>
	<g>
		<defs>
			<rect id="SVGID_1_" x="722.41" y="128.51" width="464.82" height="827.15"/>
		</defs>
		<clipPath id="SVGID_2_">
			<use xmlns:xlink="http://www.w3.org/1999/xlink" xlink:href="#SVGID_1_" style="overflow:visible;"/>
		</clipPath>
		<path class="st4" d="M906.36,666.07H803.25c-21.98,0-39.79-17.81-39.79-39.79V608.3c0-21.98,17.81-39.79,39.79-39.79h103.11    c21.98,0,39.79,17.81,39.79,39.79v17.98C946.15,648.25,928.33,666.07,906.36,666.07z"/>
		<path class="st4" d="M1106.38,395.3H803.25c-21.98,0-39.79-17.81-39.79-39.79v-17.98c0-21.98,17.81-39.79,39.79-39.79h303.13    c21.98,0,39.79,17.81,39.79,39.79v17.98C1146.17,377.48,1128.36,395.3,1106.38,395.3z"/>
		<path class="st5" d="M1106.38,785.39H957.54c-21.98,0-39.79-17.81-39.79-39.79v-17.98c0-21.98,17.81-39.79,39.79-39.79h148.84    c21.98,0,39.79,17.81,39.79,39.79v17.98C1146.17,767.58,1128.36,785.39,1106.38,785.39z"/>
		<path class="st5" d="M1106.38,519.83H897.92c-21.98,0-39.79-17.81-39.79-39.79v-17.98c0-21.98,17.81-39.79,39.79-39.79h208.47    c21.98,0,39.79,17.81,39.79,39.79v17.98C1146.17,502.01,1128.36,519.83,1106.38,519.83z"/>
		<path class="st4" d="M905.07,162.84h-84.75c-30.27,0-54.81,24.54-54.81,54.81v17.02l-0.32,39.55l42.97-11.86h96.91    c27.48,0,49.76-22.28,49.76-49.76v0C954.83,185.12,932.55,162.84,905.07,162.84z"/>
		<g class="st6">
			<path class="st7" d="M1018.91,472.03c0,0,7-6.82,8.25-11.49c1.26-4.66-8.31-21.83,0.5-31.76c8.03-9.05-0.06,18.93,12.69,8.11     c4.35-3.7,6.18-10.97,11.55-18.43c2.3-3.2,19.97-9.53,18.62,9.05c-0.8,11.05-16.24,27.83-26.84,37.88     c-10.59,10.05-16.69,18.31-16.69,18.31L1018.91,472.03z"/>
			<g>
				<g>
					<path class="st7" d="M761.45,1100.87l-2.77,17.13c-1.1,6.83,2.92,13.46,9.49,15.63l29.43,9.72h-68.7l8.31-42.48H761.45z"/>
					<path class="st8" d="M730.8,1133.66l33.96-1.75c0,0,42.73,6.65,43,15.92h-84.72L730.8,1133.66z"/>
					<g>
						<path class="st7" d="M943.83,1100.87l7.04,21.5c1.54,4.71,5.23,8.4,9.93,9.96l33.36,11.02h-68.7l-9.68-42.48H943.83z"/>
						<path class="st8" d="M924.15,1133.66l37.17-1.75c0,0,42.73,6.65,43,15.92H919.6L924.15,1133.66z"/>
					</g>
					<path class="st2" d="M770.71,704.37c0,0-16.73,11.13-21.6,53.81c-4.87,42.68,1.9,73.57-1.95,98.49l0,0.01       c-3.85,24.92-11.36,251.45-11.36,251.45h36.5l60.84-403.47L770.71,704.37z"/>
					<path class="st9" d="M760.28,1108.13"/>
					<path class="st2" d="M850.06,699.81h-64.53c0,0-7.98,48.13,6.06,76.2c14.03,28.06,21.54,35.62,25.57,51.93l0,0.01       c4.03,16.31,101.19,280.18,101.19,280.18h31.12L850.06,699.81z"/>
				</g>
				<path class="st2" d="M871.55,386.86c18.18,16.73,31.75,24.77,24.77,57.79c-6.99,33.02-0.64,38.1,10.79,50.17      c11.43,12.07,26.67,27.94-5.08,41.28s-102.24,25.4-114.94,3.17s-43.18-27.31-19.05-48.9c24.13-21.59,34.29-9.53,22.23-32.39      c-12.07-22.86-8.89-60.6,22.86-75.57C844.72,367.53,855.67,372.26,871.55,386.86z"/>
				<path class="st7" d="M700.05,688.7c0,0-6.28,11.85-10.95,15.07c-4.66,3.23-21,9.69-17.58,19.03      c3.41,9.34,18.66,25.67,28.17,24.23c9.51-1.44,11.85-24.59,11.13-32.67c-0.72-8.07-3.94-9.87-0.72-17.94      C713.33,688.35,700.05,688.7,700.05,688.7z"/>
				<path class="st10" d="M848.52,398.64c0,0,22.26,3,27.83,23.73c5.56,20.66,0,37.08,0,37.08s-3.83,23.76-14.34,25.1      c-10.46,1.37-13.27-2.25-13.18,18.43c0.09,20.6-30.44,0.5-30.44,0.5l5.36-30.69c0,0-21.94-29.74-17.47-53.43      C810.79,395.7,841.76,395.89,848.52,398.64z"/>
				<path class="st11" d="M697.48,690.87c0.88-4.1,57.7-153.36,88.66-178.43c16.71-13.54,11.72-5.7,32.15-14.69      c0.84-0.51,4.87,7.24,15,7.38c12.8,0.18,16.12-6.83,18.1-5l89.15,37.72l77.28-67.19c0,0,13.48,6.75,11.99,12.74      c-1.5,5.99-67.54,108.39-91.51,115.88c-10.87,3.4-40.93-1.94-65.51-16.05c0.29,35.3-0.43,73.19,1.02,92.35      c2.89,37.98,7.09,80.12-4.7,91.29c-11.76,11.2-98.38-7.52-115.06-13.73c-16.71-6.19-14.91-22.62-5.86-69.17      c2.29-11.68,7.58-27.4,14.23-44.39c-24.59,29.25-52.4,61.44-52.4,61.44S696.6,694.95,697.48,690.87z"/>
				<path class="st2" d="M853.29,407.26c11.91,8.1-16.23,17.41-14.64,29.41c11.34,85.74-45.66,73.14-34.17,57.51      c20.91-28.44-5.72-62.39-2.38-72.39c3.33-10,17.15-33.81,26.19-34.05s34.77-8.57,44.53,10.72c9.76,19.29,19.14,50.24,6,59.77      c0,0,4.24-23.73-8.86-33.26C856.86,415.44,853.29,407.26,853.29,407.26z"/>
			</g>
		</g>
	</g>
	<g>
		<path class="st7" d="M1112.86,806.08c0,2.07,6.46,217.05,5.44,226.87c-1.04,9.84,16.06,5.18,16.06,5.18s27.45-215.98,25.38-245.52    C1157.64,763.1,1112.86,806.08,1112.86,806.08z"/>
		<path class="st7" d="M1056.11,747.29c0,0,7.01,159.25,7.79,162.39c0.76,3.08-17.09,64.47-20.98,82.34    c-3.88,17.87-10.87,37.28-10.87,37.28s5.43,5.44,10.87,6.23c5.43,0.75,47.42-94.81,52.04-124.32    c4.69-29.53,7.79-156.16,7.79-156.16L1056.11,747.29z"/>
		<path class="st7" d="M1186.38,717.52c0,0-12.56-5.58-13.33,2.59c-0.78,8.16,11.66,19.03,11.27,24.46    c-0.41,5.45,11.54-2.98,9.85-18.76C1192.47,710.01,1186.38,717.52,1186.38,717.52z"/>
		<g>
			<g>
				<path class="st11" d="M1117.51,508.77c0,0-55.42-0.02-63.18,28.49c-7.77,28.5,6.2,133.63-0.53,153.31      c-6.71,19.71-28.99,94.82-28.99,128.47c0,33.63,147.08,39.88,166.26,1.55c19.16-38.34-22.26-118.11-22.26-140.38      c0-22.26,25.37-136.74,25.37-145.01C1194.18,526.9,1157.4,502.55,1117.51,508.77z"/>
				<path class="st11" d="M1079.68,662.62c-3.62,9.33-26.41,35.19-51.77,16.56c-25.37-18.63,8.03-117.04,29.51-148.13      C1080.75,497.39,1079.68,662.62,1079.68,662.62z"/>
				<path class="st11" d="M1192.47,531.32c-13.89-12.71-34.55,62.93-30.92,68.61c3.61,5.71,47.63,45.58,46.61,49.22      c-1.01,3.59-21.77,68.38-21.77,68.38s5.18,8.29,7.79,8.29c2.59,0,56.95-72.52,48.17-91.68      C1233.54,614.98,1215.02,551.86,1192.47,531.32z"/>
			</g>
		</g>
		<path class="st2" d="M1117.9,1035.54c0,0-3.5,25.61,4.27,26.41c7.79,0.77,51.66,2.33,55.17,0.36    c3.49-1.92-28.73-10.47-42.73-27.95C1133.38,1032.87,1117.9,1035.54,1117.9,1035.54z"/>
		<path class="st2" d="M1032.06,1029.31c0,0-10.36,14.51-5.69,21.27c4.64,6.72,48.68,5.67,54.87,1.52    c6.22-4.15-21.99-9.21-33.11-24.86C1047.35,1026.15,1032.06,1029.31,1032.06,1029.31z"/>
		<path class="st2" d="M1076.55,451.44c0,0-0.42-55.7,42.3-56.14c42.74-0.41,56.75,39.46,54.17,51.54    c-2.61,12.08-2.84,49.71,14.59,79.7c11.9,20.47,31.07,101.41-3.93,117.18c-40.72,18.35-14.01,48.49-18.74,87.23    c-5.08,41.62-67.85,89.84-108.83,16.35c-31.3-56.14,34.6-87.7,11.29-106.67c-23.3-18.96-35.35-71.75-13.77-110.74    C1068.37,503.29,1088.17,506.68,1076.55,451.44z"/>
	</g>
</g>
</svg>